<svg width="87" height="27" viewBox="0 0 87 27" fill="none" xmlns="http://www.w3.org/2000/svg">
<g clip-path="url(#clip0_4639_217)">
<path d="M49.2336 19.6552H52.4282L54.38 10.1167H56.7757L57.1289 8.34218H54.7792L54.8682 7.94296C55.0012 7.19051 55.2674 6.34568 56.4651 6.34568C57.1757 6.34568 57.8408 6.38999 58.5059 6.70059L58.8612 4.83744C58.12 4.57591 57.3401 4.44082 56.5541 4.43781C53.9808 4.43781 52.2067 5.94646 51.5407 8.34218H50.4317L50.0768 10.1167H51.1858L49.2336 19.6552Z" fill="#EA1D2C"/>
<path d="M59.349 17.3486C63.1201 17.3486 65.7378 13.932 65.7378 11.1371C65.7378 9.05198 63.8299 8.16451 61.9667 8.16451C57.8395 8.16451 55.578 11.849 55.578 14.376C55.578 16.4611 57.5302 17.3486 59.349 17.3486ZM69.4653 17.3486C73.2363 17.3486 75.854 13.932 75.854 11.1371C75.854 9.05198 73.9018 8.16451 72.0383 8.16451C67.9123 8.16451 65.65 11.8469 65.65 14.376C65.65 16.4611 67.6465 17.3486 69.4653 17.3486ZM81.0447 17.1709H84.1945L86.767 4.61713H83.5729L82.8184 8.34384L81.4874 8.21091C78.3818 8.21091 75.5426 12.2035 75.5426 15.0431C75.5426 16.1965 76.295 17.3502 77.5834 17.3502C79.4022 17.3502 80.6889 16.4628 81.2202 15.5753H81.3975L81.0447 17.1709ZM71.1947 23.7816C68.7153 25.8359 65.5308 26.839 62.3216 26.5765C58.1067 26.3102 55.0898 23.0714 54.5576 19.6552H54.7349C55.711 21.7872 58.0624 23.7816 60.9463 24.0918C63.8725 24.4467 67.3794 23.1161 69.2868 21.2968L67.1574 19.6552H73.5904L72.1691 26.4879L71.2373 23.8259L71.1947 23.7816Z" fill="#EA1D2C"/>
</g>
<path d="M6.41412 16.9315C6.39808 17.014 6.36032 17.0848 6.30083 17.1437C6.24363 17.1909 6.167 17.2144 6.07094 17.2144H3.47723C3.39317 17.2144 3.32571 17.1909 3.27483 17.1437C3.23825 17.0848 3.22799 17.014 3.24402 16.9315L5.61544 4.73166C5.63377 4.63736 5.67153 4.56664 5.72873 4.51949C5.79793 4.47234 5.87456 4.44877 5.95862 4.44877H14.6584C14.7544 4.44877 14.8219 4.47234 14.8608 4.51949C14.8996 4.56664 14.9099 4.63736 14.8916 4.73166L14.431 7.10091C14.415 7.18342 14.3772 7.25415 14.3177 7.31308C14.2605 7.36023 14.1839 7.38381 14.0878 7.38381H8.27001L7.77167 9.94755H12.7249C12.821 9.94755 12.8885 9.97112 12.9273 10.0183C12.9662 10.0654 12.9765 10.1361 12.9581 10.2304L12.4976 12.5997C12.4816 12.6822 12.4438 12.7529 12.3843 12.8119C12.3271 12.859 12.2505 12.8826 12.1544 12.8826H7.20115L6.41412 16.9315ZM18.8258 17.4796C17.601 17.4796 16.6033 17.238 15.8327 16.7547C15.0643 16.2597 14.574 15.5701 14.3616 14.686C14.3513 14.6153 14.3484 14.5682 14.353 14.5446C14.3714 14.4503 14.4463 14.3737 14.5778 14.3147L16.906 13.2716L17.057 13.2362C17.153 13.2362 17.2279 13.2834 17.2816 13.3777C17.4925 13.8374 17.7634 14.1733 18.0944 14.3855C18.4397 14.5859 18.8645 14.686 19.3689 14.686C19.9092 14.686 20.3418 14.5917 20.6667 14.4032C21.0058 14.2028 21.2063 13.9434 21.2682 13.6252C21.3369 13.2716 21.237 12.9828 20.9683 12.7588C20.6996 12.5349 20.2451 12.3404 19.6047 12.1754C18.7837 11.9514 18.0825 11.698 17.501 11.4151C16.9219 11.1204 16.4689 10.7019 16.142 10.1597C15.8174 9.60572 15.7387 8.89848 15.906 8.038C16.0412 7.34255 16.3521 6.70014 16.839 6.11078C17.3378 5.52141 17.9806 5.05581 18.7676 4.71398C19.5688 4.36036 20.4617 4.18355 21.4464 4.18355C22.6472 4.18355 23.5991 4.41341 24.3023 4.87311C25.0175 5.33282 25.4856 5.95165 25.7066 6.72961C25.7169 6.80034 25.7209 6.84159 25.7186 6.85338C25.7025 6.93589 25.6265 7.0184 25.4903 7.10091L23.169 8.10873C23.1021 8.14409 23.0446 8.16177 22.9966 8.16177C22.9126 8.16177 22.8497 8.11462 22.808 8.02032C22.6125 7.6667 22.3567 7.40738 22.0406 7.24236C21.7387 7.06555 21.3596 6.97715 20.9033 6.97715C20.435 6.97715 20.0576 7.06555 19.7711 7.24236C19.4988 7.40738 19.3364 7.62545 19.2837 7.89656C19.2264 8.19124 19.3007 8.42699 19.5064 8.6038C19.7145 8.76882 20.1039 8.92795 20.6745 9.08118C21.5847 9.3405 22.35 9.63518 22.9703 9.96523C23.5929 10.2835 24.0702 10.7314 24.4022 11.309C24.7462 11.8866 24.8335 12.6115 24.6639 13.4837C24.5219 14.2146 24.1931 14.8864 23.6777 15.4994C23.1646 16.1005 22.4883 16.5838 21.6487 16.9492C20.8235 17.3028 19.8825 17.4796 18.8258 17.4796ZM31.3683 16.9846C31.2905 17.1378 31.1675 17.2144 30.9994 17.2144H27.9374C27.7693 17.2144 27.6832 17.1319 27.6793 16.9669L27.3129 4.76703L27.3301 4.67862C27.3599 4.52539 27.4588 4.44877 27.6269 4.44877H30.3828C30.5629 4.44877 30.6549 4.53128 30.6588 4.6963L30.6826 13.0064L34.03 6.16382C34.1078 6.01059 34.2308 5.93397 34.3989 5.93397H36.7404C36.9086 5.93397 37.0017 6.01059 37.02 6.16382L37.7433 13.0064L41.0697 4.6963C41.1378 4.53128 41.2619 4.44877 41.4421 4.44877H43.9277C44.0238 4.44877 44.0901 4.47824 44.1267 4.53717C44.1632 4.59611 44.1603 4.67273 44.118 4.76703L39.0088 16.9669C38.9407 17.1319 38.8226 17.2144 38.6545 17.2144H35.5924C35.4243 17.2144 35.3311 17.1378 35.3129 16.9846L34.6109 10.4957L31.3683 16.9846Z" fill="#EA1D2C"/>
<defs>
<clipPath id="clip0_4639_217">
<rect width="37.7691" height="22.3046" fill="white" transform="translate(48.9607 4.43781)"/>
</clipPath>
</defs>
</svg>
